<svg width="175" height="32" viewBox="0 0 175 32" fill="none" xmlns="http://www.w3.org/2000/svg">
<path d="M24.8447 20.3815H3.77038C4.45699 25.4288 8.131 28.6149 13.1301 28.6149C16.3162 28.6149 19.1109 27.4886 21.1165 25.3806L23.2245 27.6332C20.7732 30.3796 17.1474 31.9456 12.8349 31.9456C5.246 31.9516 0 26.6093 0 18.9119C0 11.2146 5.29418 5.87823 12.7868 5.87823C21.1165 5.83004 25.2302 11.6121 24.8387 20.3815H24.8447ZM21.4177 17.2436C21.1707 12.2927 17.84 9.16074 12.7928 9.16074C7.74553 9.16074 4.36665 12.3469 3.7764 17.2436H21.4177Z" fill="#004D47"/>
<path d="M47.4313 27.8321C45.3714 30.6268 42.0889 32 37.9752 32C32.6329 32 29.2058 28.5729 29.2058 24.1099C29.2058 19.6469 32.7834 16.7619 38.8606 16.7077H47.3349V15.1899C47.3349 11.4196 44.986 9.16094 40.4266 9.16094C37.5838 9.16094 34.9397 10.2391 32.2414 12.1001L30.6272 9.30549C33.9579 7.10109 36.7526 5.82422 41.1614 5.82422C47.5337 5.82422 51.0571 9.2031 51.1113 14.7442L51.1595 31.7952H47.4373V27.8261L47.4313 27.8321ZM47.3831 22.8813V19.7915H39.3485C35.036 19.7915 32.7835 21.1165 32.7835 23.9594C32.7835 26.8022 35.0842 28.6633 38.71 28.6633C43.0707 28.6633 46.4014 26.4589 47.3831 22.8813Z" fill="#004D47"/>
<path d="M63.5055 11.7147C65.222 7.9443 68.4082 5.88444 72.7688 5.83626V9.70902C67.3301 9.61266 63.9512 12.9915 63.5055 18.087V31.8073H59.6809V5.98081H63.5055V11.7147Z" fill="#004D47"/>
<path d="M101.53 15.8765V31.8013H97.7049V16.9065C97.7049 12.3471 94.9585 9.65482 90.4051 9.65482C85.3097 9.703 82.1717 13.0337 81.732 17.9364V31.8013H77.9075V5.98081H81.732V11.6665C83.545 7.74554 87.0262 5.88444 91.7302 5.83626C97.9037 5.83626 101.53 9.66084 101.53 15.8826V15.8765Z" fill="#004D47"/>
<path d="M132.301 20.3815H111.232C111.919 25.4288 115.593 28.6149 120.592 28.6149C123.778 28.6149 126.573 27.4886 128.578 25.3806L130.686 27.6332C128.235 30.3796 124.609 31.9456 120.297 31.9456C112.702 31.9456 107.456 26.6032 107.456 18.9119C107.456 11.2206 112.75 5.87823 120.243 5.87823C128.572 5.83004 132.686 11.6121 132.294 20.3815H132.301ZM128.873 17.2436C128.627 12.2927 125.296 9.16074 120.249 9.16074C115.201 9.16074 111.822 12.3469 111.232 17.2436H128.873Z" fill="#004D47"/>
<path d="M153.959 8.18522L152.489 11.2208C150.477 9.94392 147.882 9.11276 145.484 9.11276C142.593 9.11276 140.389 10.1427 140.389 12.5398C140.389 18.2737 154.796 15.3345 154.796 24.5918C154.796 29.6872 150.291 31.9398 145.34 31.9398C141.666 31.9398 137.889 30.6689 135.444 28.314L136.914 25.4229C139.118 27.4828 142.449 28.7055 145.49 28.7055C148.532 28.7055 150.977 27.5792 151.025 25.0314C151.17 18.8097 136.715 21.9959 136.763 12.8289C136.763 7.87805 141.027 5.82422 145.731 5.82422C148.815 5.82422 151.808 6.70357 153.965 8.17317L153.959 8.18522Z" fill="#004D47"/>
<path d="M174.388 30.0365C172.575 31.2592 170.618 31.9458 168.558 31.994C164.788 31.994 161.993 29.7414 161.993 24.646V9.89573H158.271V6.80595H161.993V0H165.763V6.81197L173.949 6.76379V9.90175H165.763V23.9654C165.763 27.1033 166.986 28.2778 169.19 28.2778C170.515 28.2778 171.883 27.8381 173.304 26.9528L174.382 30.0425L174.388 30.0365Z" fill="#004D47"/>
</svg>
